<?xml version="1.0" encoding="utf-8"?>
<!-- Generator: Adobe Illustrator 22.1.0, SVG Export Plug-In . SVG Version: 6.00 Build 0)  -->
<svg version="1.1" id="Layer_1" xmlns="http://www.w3.org/2000/svg" xmlns:xlink="http://www.w3.org/1999/xlink" x="0px" y="0px"
	 viewBox="0 0 200 200" fill="white" style="enable-background:new 0 0 200 200;" xml:space="preserve">
<path d="M103.9,84.4c0,19,0,38,0,56.9c0,3.7,0.9,4.8,4.7,4.6c7.4-0.5,14.4-2.6,20.6-6.5c19.7-12.2,30.5-30.2,30-53.2
	c-0.5-19.6-9.6-35.7-26.2-46.9c-3.2-2.2-6.8-3.8-10.3-5.7c-3.6-1.9-4.7-4-3.4-6.8c1.3-2.8,3.3-3.9,6.4-2.6
	c20.6,8.4,34.5,23,40.6,44.6c6.4,22.7,1.3,43-12.4,61.8c-8.6,11.7-20.4,18.8-33.6,23.8c-3.5,1.3-7.5,1.5-11.3,1.9
	c-3.2,0.3-4.4,1.8-4.4,4.8c0,4.7,0,9.3-0.2,14c-0.2,3.7-2.3,5.7-5.2,5.6c-3.1-0.1-5-2.6-5.1-6.2c0-4.8-0.2-9.5-0.2-14.3
	c0-2.9-1.2-4.6-4.2-4.6c-16-0.1-28.6-7.9-39.6-18.5c-9.5-9.2-15.5-20.8-18.6-33.7c-2.9-12.3-2.4-24.4,1.8-36.3
	C38.3,53.9,46,42.9,57.2,34.2c11.8-9.3,25.8-11.9,40-14c3.8-0.6,6.8,2,7,5.9c0.3,4.8,0.3,9.5,0.3,14.3c0,14.7,0,29.4,0,44.1
	C104.2,84.4,104.1,84.4,103.9,84.4z M94.3,88.4c-0.1,0-0.2,0-0.3,0c0-17.9,0-35.8,0-53.7c0-2.7-1.1-4.6-4.1-4
	c-3.6,0.7-7.3,1.5-10.7,2.7c-10.8,3.9-20.1,10.1-26.9,19.4C41.8,67,37.2,82.7,41.1,100.3c3.2,14.2,11.1,25.5,22,34.8
	c7.6,6.4,16.5,9.9,26.3,11c4,0.4,4.9-0.6,4.9-4.6C94.3,123.8,94.3,106.1,94.3,88.4z"/>
</svg>
