<?xml version="1.0" encoding="utf-8"?>
<!-- Generator: Adobe Illustrator 22.1.0, SVG Export Plug-In . SVG Version: 6.00 Build 0)  -->
<svg version="1.1" id="Layer_1" xmlns="http://www.w3.org/2000/svg" xmlns:xlink="http://www.w3.org/1999/xlink" x="0px" y="0px"
	 viewBox="0 0 200 200" fill="white" style="enable-background:new 0 0 200 200;" xml:space="preserve">
<g id="LlVdj7_1_">
	<g>
		<path d="M161.9,102c-0.4,0-0.8,0-1.2,0c0-19.9,0-39.8,0-59.7c0-3.6-1.6-5.2-5.3-5.2c-16.5,0.1-33.1,0.1-49.6,0.3
			c-19.4,0.3-38.8,1-58.2,1.3c-3.5,0.1-6.8,0.3-9.6,2.4c-1.8,1.3-3,3.3-4.5,5.1c1.8,1.5,3.5,3.1,5.4,4.5C39.3,51,40,51,40.6,51
			c7.3,0.3,14.7,0.7,22,0.8c26.6,0.2,53.3,0.3,80,0.5c4,0,4.3,0.5,4.2,4.5c-0.5,34.7-0.9,69.5-1.3,104.2c0,2,0.4,4.1,1.2,6
			c2.2,5.7,9.3,6.8,12.6,1.8c1.6-2.5,2.4-5.9,2.4-8.9C162,140.6,161.9,121.3,161.9,102z"/>
	</g>
</g>
</svg>
