<?xml version="1.0" encoding="utf-8"?>
<!-- Generator: Adobe Illustrator 22.1.0, SVG Export Plug-In . SVG Version: 6.00 Build 0)  -->
<svg version="1.1" id="Layer_1" xmlns="http://www.w3.org/2000/svg" xmlns:xlink="http://www.w3.org/1999/xlink" x="0px" y="0px"
	 viewBox="0 0 200 200" fill="white" style="enable-background:new 0 0 200 200;" xml:space="preserve">
<g id="EGvnjK.tif">
	<g>
		<path d="M159.8,87.5c-10.5,0.2-19.2-6.1-22.4-16.2c-1.1-3.4-2.2-6.8-3.6-10c-2.2-5.1-6.3-6.9-11.5-5.1c-2.4,0.8-4.8,2.2-6.7,3.8
			c-6.1,5.2-10.8,11.5-15.3,18.2c-7.7,11.4-13.7,23.7-17.6,36.8c-2.6,8.8-3.9,17.9-5.7,26.9c-0.7,3.7-1.2,7.4-1.9,11.1
			c-0.8,4-3.2,7-6.9,8.8c-3.2,1.5-6.2,0.7-8.7-1.6c-2.3-2.1-4.4-4.4-6.5-6.7c-5.6-6.1-11-12.3-16.6-18.3c-6.6-7.1-13.4-14-20.1-21
			c-1.3-1.4-2.5-3.1-3.5-4.8c-1.5-2.6-2.3-5.5-0.3-8.3c2-2.9,5-4.1,8.5-3.6c7.2,0.9,13.6,4,18.1,9.6c6.9,8.7,13.2,18,19.8,27
			c0.4,0.6,0.7,1.3,1.2,1.8c2,2.5,3.7,2.4,4.7-0.5c4-11.3,7.8-22.6,11.8-33.9C79,94.2,81,86.7,84.3,80c3.7-7.4,7.6-14.8,14-20.5
			c4.7-4.2,8.8-9.2,13.7-13.2c3.3-2.7,7.4-4.7,11.4-6.4c5-2.2,9.7-0.7,12.9,3.8c4.2,5.8,8,11.9,10.4,18.8c1.1,3.1,3.3,6.1,5.8,8.3
			c8.1,7.3,23.8,0.3,24.5-12.1c0.2-3.1,0.5-6.2,0.7-9.4c0.2-2.5,1-4.6,3.7-5.1c2.7-0.5,4.5,1.4,4.8,3.5c0.7,4,1,8.3,0.6,12.3
			c-0.6,6.7-3.2,12.9-7.4,18.3C174.6,84.5,168.5,87.4,159.8,87.5z"/>
	</g>
</g>
</svg>
