<?xml version="1.0" encoding="utf-8"?>
<!-- Generator: Adobe Illustrator 22.1.0, SVG Export Plug-In . SVG Version: 6.00 Build 0)  -->
<svg version="1.1" id="Layer_1" xmlns="http://www.w3.org/2000/svg" xmlns:xlink="http://www.w3.org/1999/xlink" x="0px" y="0px"
	 viewBox="0 0 200 200" fill="white" style="enable-background:new 0 0 200 200;" xml:space="preserve" >
<g id="_x30_lYSsJ.tif">
	<g>
		<path d="M171.5,164.6c-0.7,1.1-1.2,3.2-2.2,3.5c-1.8,0.4-4.3,0.3-5.8-0.7c-2.2-1.5-4.3-3.8-5.6-6.1c-6.5-11.8-13-23.7-19-35.8
			c-9-18.2-17.6-36.7-26.4-55c-3-6.2-6.1-12.5-9.2-18.6c-0.5-0.9-1.8-2-2.7-1.9c-0.9,0.1-2,1.3-2.5,2.2c-3.9,8.1-7.5,16.3-11.5,24.3
			c-4.9,9.8-10.3,19.4-15.1,29.2c-8.7,17.8-17,35.8-25.7,53.7c-1.9,4-3.9,8.4-8.7,9.9c-1.8,0.6-4.4,0.7-5.7-0.3
			c-1.2-1-2-3.9-1.4-5.4c2.8-7.9,5.7-15.7,9.2-23.3c7.1-15.5,14.3-30.9,21.8-46.2c9-18.4,18.1-36.6,27.5-54.8
			c2.3-4.5,5.6-8.5,9-12.3c2.8-3,5.3-2.9,7.6,0.6c6.3,9.6,13,19.2,18.2,29.4c10.7,21.3,20.8,43,30.8,64.7
			c5.7,12.4,10.6,25.1,15.8,37.7C170.6,161,170.9,162.6,171.5,164.6z"/>
	</g>
</g>
</svg>
