<?xml version="1.0" encoding="utf-8"?>
<!-- Generator: Adobe Illustrator 22.1.0, SVG Export Plug-In . SVG Version: 6.00 Build 0)  -->
<svg version="1.1" id="Layer_1" xmlns="http://www.w3.org/2000/svg" xmlns:xlink="http://www.w3.org/1999/xlink" x="0px" y="0px"
	 viewBox="0 0 200 200" fill="white" style="enable-background:new 0 0 200 200;" xml:space="preserve">
<g id="uZGHQ8.tif">
	<g>
		<path d="M27.4,110.8c-0.8,9.8,1.8,20.4,5.6,31.1c4.5,12.7,11.7,23.2,20.9,32.6c2.9,3,3,5.8,0.5,8.4c-2.6,2.9-5.1,3.2-8.3,0.2
			c-7.5-7.2-14.5-14.9-18.6-24.8c-3.1-7.5-6.3-15.1-9.1-22.7c-1.1-3-1.4-6.4-1.9-9.6c-1-7.3-3.3-14.5-0.6-22.1
			c1.5-4.2,1.1-8.9,1.8-13.4c0.4-2.2,1.4-4.3,1.8-6.5c3.6-16.8,12.7-30.7,24.4-42.5C51,34.4,60,28.9,68.8,24
			c5.5-3.1,12.2-4.5,18.6-5.8c7.2-1.4,14.7-2.3,22-2.5c4.6-0.1,9.1,2,13.7,2.2c7.8,0.4,14.3,4.1,21,7.1
			c11.4,5.2,21.5,12.6,28.4,23.1c5.6,8.5,10.5,17.5,11.9,28.4c1.3,9.8,0.3,19.3-2.2,28.1c-3.5,12.4-9.9,23.8-20.7,32.1
			c-7.6,5.8-15.7,10.3-24.9,12.7c-8.9,2.4-18,2.1-26.6-1.2c-6.9-2.7-13.6-6.1-20-10c-6.9-4.2-10.4-11.5-13.9-18.6
			c-3.9-7.9-4-16.3-3-24.5c1.5-11.4,7.2-21,16.8-27.8c6.8-4.9,14.8-7.1,22.8-7c9.4,0.1,18.3,3.3,25.5,9.9c3.3,3,3.5,5.6,1.3,8.3
			c-2.6,3.2-3.9,3.3-7.4,1c-4-2.6-7.9-5.8-12.3-7.2c-8.4-2.6-16.7-1.7-23.8,4.6c-4.9,4.4-9.4,8.9-10.8,15.7
			c-2.3,11.5-1.7,22.4,6.9,31.7c5.4,5.8,11.8,10.3,19.1,12.7c7.7,2.6,15.5,3.1,23.7,1.1c16.9-4.2,28-14.8,34.6-30.2
			c4.8-11.2,5.9-22.7,1.8-35c-5.1-15.6-14.7-26.7-28.1-34.9c-14.3-8.8-29.8-11.6-46.6-10.2c-20.1,1.8-35.9,11.2-48.6,26
			C40.2,62.8,34.8,73.4,30.7,85C27.8,93,27.7,101,27.4,110.8z"/>
	</g>
</g>
</svg>
