<?xml version="1.0" encoding="utf-8"?>
<!-- Generator: Adobe Illustrator 22.1.0, SVG Export Plug-In . SVG Version: 6.00 Build 0)  -->
<svg version="1.1" id="Layer_1" xmlns="http://www.w3.org/2000/svg" xmlns:xlink="http://www.w3.org/1999/xlink" x="0px" y="0px"
	 viewBox="0 0 200 200" fill="white" style="enable-background:new 0 0 200 200;" xml:space="preserve">
<g id="_x37_Spa1o_1_">
	<g>
		<path d="M169.1,95.5c0.5,0.1,1,0.2,1.6,0.3c0.1,2,0.4,4.1,0.4,6.1c-0.1,2.6-0.6,5.3-0.6,7.9c0.2,18.4,0.6,36.9,0.9,55.3
			c0,0.2,0,0.4,0,0.6c0.3,3,2.6,4.5,6.6,4.2c2.8-0.2,3.3-1.2,3-4.8c-0.1-1.5-0.2-3.1-0.2-4.6c0.2-16.6,0.6-33.1,0.7-49.7
			c0.1-15.4-0.1-30.7-0.2-46.1c-0.1-6.3-0.2-12.7-0.4-19c-0.1-2.5-2-4.5-4.5-4.6c-2.5-0.1-4.5,0.8-4.9,3.6c-0.5,3.3-0.8,6.7-1.3,10
			c-0.9,5.7-1.4,11.5-2.8,17.1c-1.8,6.7-3.8,13.5-6.7,19.8c-4.4,9.4-9.1,18.8-16.7,26.2c-1.8,1.8-4.1,3-6,4.7
			c-8.5,7.6-18.5,11.5-29.7,12.8c-3.2,0.4-6.5,1.1-9.7,1.1c-3.5,0-7.1-0.5-10.6-1.3c-4.8-1.1-9.8-2.1-14.2-4
			c-4.7-2.1-9-5.1-13.3-8.1c-8.2-5.8-14.3-13.5-18.6-22.4c-4-8.3-7.4-17-10.2-25.8c-2.6-8.3-4.9-16.8-4.7-25.7c0-1,0.2-2.1-0.1-3.1
			c-1.1-3.3-2.2-5.4-5.6-4.6c-2.8,0.7-4.8,3.6-4.2,6.5c1.6,8.5,2.7,17.1,4.7,25.4c1.9,7.8,4.2,15.7,7.6,23c3.6,7.8,8,15.5,13.2,22.3
			c4.9,6.6,10.8,12.6,18.3,16.6c8.9,4.9,18.2,8.2,28.5,9.5c11.6,1.5,22.6,0.1,33.4-3.1c10.6-3.2,19.9-9.1,27.7-16.9
			c6.7-6.8,12.8-14.3,16.1-23.6C166.9,99,168.1,97.3,169.1,95.5z"/>
	</g>
</g>
</svg>
